<svg width="668" height="598" viewBox="0 0 668 598" fill="none" xmlns="http://www.w3.org/2000/svg">
<path d="M592.029 378.113C663.209 287.823 702.049 163.613 625.509 67.4133C616.879 58.0033 608.399 48.1833 598.229 40.3933C591.139 35.1833 583.749 29.7533 576.399 24.9133C560.329 15.0233 542.279 8.98329 524.029 4.32329C489.559 -3.42671 453.329 0.0932903 420.259 12.2033C394.699 22.6633 371.529 39.0833 353.599 60.1733C348.949 65.4633 345.049 71.4433 341.189 77.3633C338.899 80.8633 337.009 84.8333 334.569 85.5433C331.099 85.9833 329.169 80.5133 327.349 78.1133C324.579 73.6433 321.859 69.3633 318.569 65.4833C311.929 57.0033 302.979 48.7233 295.029 41.0033C277.219 25.5833 253.759 13.3833 231.199 6.98329C194.319 -4.08671 153.939 -1.67671 118.059 11.9533C78.1294 27.1933 44.4694 57.6333 23.8194 94.8633C11.3794 118.503 3.00936 144.813 0.37936 171.343C-0.29064 190.523 -0.500639 209.513 3.48936 228.413C10.0194 262.233 22.8894 294.683 40.3494 324.393C49.5694 342.523 61.9094 358.793 73.3194 375.513C85.9094 390.393 98.4694 406.293 111.219 421.193C116.269 427.203 121.099 432.233 126.439 437.763C130.479 441.193 135.609 450.293 141.599 447.423C145.439 444.663 146.929 441.373 150.649 437.443C159.349 427.743 170.679 417.353 181.099 408.923C199.819 393.963 220.539 381.713 244.889 380.233C251.649 379.883 256.559 384.433 260.999 389.073C264.969 392.573 264.059 396.873 259.959 399.973C248.429 409.523 236.799 418.553 226.139 429.013C218.709 436.773 212.399 446.433 207.339 456.143C203.469 463.623 199.899 472.573 197.779 480.593C196.759 485.043 199.199 485.643 203.149 484.603C210.199 482.723 216.979 479.183 223.739 476.493C227.949 474.743 231.889 473.403 235.689 471.123C245.189 465.333 253.659 457.773 261.389 449.793C267.209 443.433 272.989 436.133 278.789 429.743C281.719 426.933 284.419 421.493 288.939 421.663C292.539 422.253 295.099 425.463 297.829 428.493C300.569 431.683 301.789 435.483 301.499 439.563C299.399 473.303 278.779 499.413 255.729 522.433C253.649 524.513 251.769 526.513 249.739 528.583C247.459 531.543 242.389 534.263 243.329 538.293C243.739 539.743 245.729 541.213 247.349 542.463C253.639 547.283 260.419 551.563 267.109 556.013C284.299 568.813 302.339 579.793 320.609 590.803C326.129 594.023 331.499 599.073 338.029 596.613C352.209 589.553 365.139 580.393 378.519 571.863C393.289 562.003 407.959 552.143 422.179 541.773C444.669 524.873 466.889 507.273 488.299 488.843C498.019 479.403 507.809 470.303 517.689 460.953C533.179 445.253 549.089 429.653 563.499 412.953C567.929 408.343 571.219 403.843 575.049 398.753C580.379 391.813 586.709 385.113 591.919 378.253L592.039 378.103L592.029 378.113ZM504.649 107.313C522.269 105.503 539.749 105.353 557.479 106.743C561.079 106.983 564.619 107.323 568.049 107.773C570.819 108.133 573.499 108.853 575.459 110.903C577.809 113.533 577.849 117.363 578.379 120.703C578.869 125.013 579.559 129.693 579.859 133.943C580.449 140.583 580.139 150.453 580.209 158.033C580.659 173.293 578.119 189.363 575.319 204.143C573.569 213.143 568.879 206.853 565.159 203.173C562.629 200.573 560.169 198.023 557.599 195.463C549.219 187.613 541.539 179.453 533.469 171.313C517.189 155.753 501.559 139.333 485.529 123.393C482.249 119.833 473.229 113.363 481.969 111.093C489.409 109.253 497.089 108.033 504.449 107.323L504.629 107.303L504.649 107.313ZM562.789 249.173C557.899 262.183 551.509 274.473 544.429 286.263C535.449 301.363 525.679 315.373 513.029 327.723C507.229 333.283 501.439 339.303 495.369 344.583C486.029 352.293 476.109 358.923 465.869 365.303C459.399 368.943 458.209 373.393 459.389 380.553C462.149 406.183 458.569 434.043 444.369 455.933C437.459 465.603 430.019 475.033 420.779 482.673C404.279 496.483 384.619 507.113 364.689 515.293C359.129 517.313 357.849 514.523 358.959 509.343C361.659 497.873 363.729 486.393 364.759 474.663C366.099 455.573 367.859 436.283 363.749 417.453C362.669 409.703 358.559 411.013 353.069 415.023C348.919 417.963 345.339 420.903 341.619 424.203C338.299 427.033 334.639 431.243 331.269 433.243C329.359 434.383 328.219 434.213 326.899 432.953C318.149 424.343 267.229 374.093 252.159 359.223C249.589 356.453 246.839 355.433 249.279 351.733C252.659 346.323 258.029 342.233 262.309 337.543C264.759 334.603 271.869 329.053 268.209 325.043C258.329 318.243 220.539 322.403 208.839 324.013C195.349 325.983 181.759 328.923 168.449 331.593C164.239 332.673 159.429 333.343 161.189 326.623C162.779 320.743 165.649 315.573 168.059 310.173C172.979 299.853 178.289 289.423 184.639 280.073C189.729 273.093 193.979 267.413 199.589 261.043C218.139 241.493 243.589 228.113 270.359 225.313C278.419 224.113 287.129 223.463 295.379 224.553C301.139 224.903 308.069 227.443 313.059 223.703C316.409 221.193 318.439 217.073 320.839 213.673C324.959 207.363 329.589 200.903 334.389 195.173C344.299 183.283 356.469 170.773 368.649 161.033C376.589 155.043 384.469 149.833 392.719 144.323C406.289 135.663 421.429 128.303 436.639 122.423C443.919 119.653 450.839 115.543 457.329 122.553C464.779 130.053 471.739 137.583 478.999 144.963C490.669 155.903 501.429 167.353 512.679 178.863C524.519 189.943 536.019 201.383 547.169 213.173C550.819 216.883 554.659 220.443 558.659 224.243C561.169 226.693 564.179 229.293 565.599 232.393C567.769 237.163 564.719 243.493 562.859 248.983L562.789 249.173Z" fill="#F37489"/>
<path d="M477.929 205.033C471.969 199.133 466.559 193.873 460.849 188.043C453.869 180.683 446.329 173.603 436.139 179.333C429.959 182.833 428.259 190.933 430.979 197.293C432.749 201.513 436.159 204.853 439.319 208.153C447.899 216.783 456.939 224.893 465.219 233.753C467.949 236.653 470.499 239.373 473.239 242.223C478.389 247.443 483.389 254.453 491.179 255.693C499.559 257.283 507.959 249.153 507.329 240.883C506.599 229.143 486.229 213.943 478.069 205.173L477.929 205.033Z" fill="#F2748A"/>
</svg>
